<svg version="1.2" xmlns="http://www.w3.org/2000/svg" viewBox="0 0 541 579" width="541" height="579"><defs><linearGradient id="P" gradientUnits="userSpaceOnUse"/><linearGradient id="g1" x2="1" href="#P" gradientTransform="matrix(208.941,0,0,538.981,.628,39.826)"><stop stop-color="#dc678e"/><stop offset=".41" stop-color="#7a2e98"/><stop offset="1" stop-color="#ad6d99"/></linearGradient><linearGradient id="g2" x2="1" href="#P" gradientTransform="matrix(392.389,0,0,574.031,16.675,0)"><stop stop-color="#e68a33"/><stop offset=".52" stop-color="#e166c8"/><stop offset="1" stop-color="#1e1c80"/></linearGradient><linearGradient id="g3" x2="1" href="#P" gradientTransform="matrix(-357.849,-325.211,262.813,-289.188,51.433,723.536)"><stop stop-color="#e4d5fd"/><stop offset="1" stop-color="#fff"/></linearGradient><linearGradient id="g4" x2="1" href="#P" gradientTransform="matrix(-13.286,-12.075,12.075,-13.286,116.008,62.331)"><stop stop-color="#e4d5fd"/><stop offset="1" stop-color="#fff"/></linearGradient><linearGradient id="g5" x2="1" href="#P" gradientTransform="matrix(-37.995,-23.321,21.756,-35.445,175.28,53.251)"><stop stop-color="#e4d5fd"/><stop offset="1" stop-color="#fff"/></linearGradient><linearGradient id="g6" x2="1" href="#P" gradientTransform="matrix(151.967,0,0,147.231,312.78,30.34)"><stop stop-color="#e26f3c"/><stop offset="1" stop-color="#eeb941"/></linearGradient><linearGradient id="g7" x2="1" href="#P" gradientTransform="matrix(304.623,0,0,42.527,197.902,94.966)"><stop stop-color="#e16484"/><stop offset="1" stop-color="#76294b"/></linearGradient><linearGradient id="g8" x2="1" href="#P" gradientTransform="matrix(290.665,-277.278,343.918,360.521,-13.807,212.457)"><stop stop-color="#ca7819"/><stop offset="1" stop-color="#ecb24b"/></linearGradient><linearGradient id="g9" x2="1" href="#P" gradientTransform="matrix(153.073,161.215,-146.986,139.563,859.103,-227.2)"><stop stop-color="#e1612e"/><stop offset="1" stop-color="#ba4752"/></linearGradient><linearGradient id="g10" x2="1" href="#P" gradientTransform="matrix(33.042,0,0,33.043,227.484,146.236)"><stop stop-color="#e1612e"/><stop offset="1" stop-color="#ba4752"/></linearGradient><linearGradient id="g11" x2="1" href="#P" gradientTransform="matrix(33.043,0,0,33.043,383.857,162.758)"><stop stop-color="#e1612e"/><stop offset="1" stop-color="#ba4752"/></linearGradient><linearGradient id="g12" x2="1" href="#P" gradientTransform="matrix(172.882,0,0,158.58,235.679,30.315)"><stop stop-color="#f1ca47"/><stop offset="1" stop-color="#eeb941"/></linearGradient></defs><style>.a{fill:url(#g1)}.b{fill:url(#g2)}.c{fill:url(#g3)}.d{fill:url(#g4)}.e{fill:url(#g5)}.f{mix-blend-mode:multiply;fill:#f3e6fc}.g{fill:url(#g6)}.h{fill:url(#g7)}.i{fill:url(#g8)}.j{fill:url(#g9)}.k{fill:url(#g10)}.l{fill:url(#g11)}.m{fill:url(#g12)}</style><path class="a" d="m190.7 573.3c-6.2-1.2-12.2-3.6-17.7-7-5.4-3.5-10.4-8.1-14.4-13.5-4.1-5.5-7.4-11.8-9.4-18.9 0 0-130.4-441.6-130.5-441.8-5.1-17.4 2.1-38.6 15.8-52.3-4.8 3.7-13.3 11.1-17.9 15.1-2.2 2-7 6.4-9.2 10.5-7.3 11.9-8.5 26.6-4.6 39.8l127.9 434.2c2 7 5.2 13.2 9.2 18.6 4 5.3 8.9 9.8 14.2 13.2 5.4 3.4 11.3 5.8 17.4 6.9 6.1 1.1 12.4 1 18.7-0.6l19.4-4.8c-6.3 1.6-12.7 1.7-18.9 0.6z"/><path class="b" d="m220.1 0.7c26.2-4.9 51.1 15.6 58.5 39.8 0 0 127.5 415.9 127.6 416 8.4 27.7-1.9 55.2-27.9 63.4l-166 52.1c-6.5 2-13.2 2.5-19.6 1.6-6.5-0.9-12.8-3.2-18.5-6.6-5.7-3.4-10.9-8.1-15.2-13.6-4.3-5.6-7.7-12.2-9.8-19.5 0 0-130.4-441.7-130.5-441.8-7.4-25.2 5.7-54.7 33.1-59.9 0 0 168.3-31.5 168.3-31.5z"/><path class="c" d="m230.9 50.7c4.5-0.9 9.2-0.7 13.6 0.4 4.5 1 8.8 3 12.7 5.6 4 2.7 7.5 6.1 10.5 10.1 2.9 3.9 5.3 8.5 6.8 13.4l113.9 370.8c1.6 5.2 2.2 10.3 1.9 15.2-0.2 5-1.4 9.7-3.2 13.9-1.9 4.3-4.5 8.1-7.8 11.1-3.3 3.1-7.3 5.5-11.7 6.9l-158.4 48.8c-4.8 1.4-9.8 1.8-14.5 1.1-4.8-0.7-9.5-2.4-13.7-5-4.2-2.5-8.1-5.9-11.2-10.1-3.2-4.1-5.7-9-7.3-14.4 0 0-116.3-392.3-116.4-392.4-5.5-18.7 4.2-40.6 24.4-44.5 0 0 158.8-30.6 160.4-30.9z"/><path class="d" d="m126.7 50.2c0 4.2-3.5 7.7-7.8 7.7-4.3 0-7.7-3.5-7.7-7.7 0-4.3 3.4-7.8 7.7-7.8 4.3 0 7.8 3.5 7.8 7.8z"/><path class="e" d="m190.7 42.4l-48 9.1c-3.5 0.6-6.9-1.7-7.6-5.2-0.6-3.5 1.7-6.9 5.2-7.6l48-9.1c3.5-0.6 6.9 1.7 7.6 5.2 0.6 3.5-1.7 6.9-5.2 7.6z"/><path class="f" d="m172.2 263.3l34.5 223.1c0 0 42.5 17 88.2 10.2 45.6-6.8 93.9-23.8 93.9-23.8z"/><path class="g" d="m456.5 177.6q-0.3 0-0.6-0.1c-4.3-0.3-7.5-4-7.2-8.3 0.1-0.8 5.1-74.3-24.2-107.6-8.6-9.7-19.1-14.8-32.1-15.5-14.6-0.8-26.3 3.3-36.1 12.6-27.5 26.1-27.9 82.9-27.9 83.5 0 4.3-3.5 7.8-7.8 7.8q0 0 0 0c-4.3 0-7.8-3.5-7.8-7.8 0-2.6 0.4-64.2 32.7-94.9 12.9-12.2 28.9-17.8 47.7-16.8 17.2 0.9 31.7 7.9 43.1 20.8 33.6 38.2 28.2 115.7 28 119-0.3 4.1-3.7 7.3-7.8 7.3z"/><path class="h" d="m502.5 109.6l-228.6-14.6-76 13.8 246.4 28.7z"/><path class="i" d="m197.9 108.8l-25.7 154.5 71.3 178.7c0 0 53.9 36.6 224.6 31.6l-23.8-347.2z"/><path class="j" d="m444.3 126.4l58.2-16.8 38.3 341.9-72.7 22.1z"/><path class="k" d="m260.5 162.8c0 9.1-7.4 16.5-16.5 16.5-9.1 0-16.5-7.4-16.5-16.5 0-9.2 7.4-16.6 16.5-16.6 9.1 0 16.5 7.4 16.5 16.6z"/><path class="l" d="m416.9 179.3c0 9.1-7.4 16.5-16.5 16.5-9.1 0-16.5-7.4-16.5-16.5 0-9.1 7.4-16.5 16.5-16.5 9.1 0 16.5 7.4 16.5 16.5z"/><path class="m" d="m400.7 188.9c-4.3 0-7.8-3.5-7.8-7.8 0-1.3-1.3-133-71-135.1q-0.8 0-1.6 0c-62.7 0-68.9 116.4-69 117.6-0.2 4.3-3.9 7.6-8.2 7.4-4.3-0.2-7.6-3.9-7.4-8.2 0.1-1.3 1.7-33.2 12.5-65.4 15-44.9 40.7-68 74.2-67.1 35.7 1.1 61.9 28.1 75.9 78.1 10 36 10.3 71.2 10.3 72.6 0 4.4-3.5 7.9-7.8 7.9q0 0-0.1 0z"/></svg>